<svg xmlns="http://www.w3.org/2000/svg" viewBox="0 0 1280 720">
  <rect width="1280" height="720" fill="#071b46"/>
  <g opacity="0.3">
    <rect x="0" y="0" width="24" height="720" fill="#2f4a90"/>
    <rect x="48" y="0" width="24" height="720" fill="#2f4a90"/>
    <rect x="96" y="0" width="24" height="720" fill="#2f4a90"/>
    <rect x="144" y="0" width="24" height="720" fill="#2f4a90"/>
    <rect x="192" y="0" width="24" height="720" fill="#2f4a90"/>
    <rect x="240" y="0" width="24" height="720" fill="#2f4a90"/>
    <rect x="288" y="0" width="24" height="720" fill="#2f4a90"/>
    <rect x="336" y="0" width="24" height="720" fill="#2f4a90"/>
    <rect x="384" y="0" width="24" height="720" fill="#2f4a90"/>
    <rect x="432" y="0" width="24" height="720" fill="#2f4a90"/>
    <rect x="480" y="0" width="24" height="720" fill="#2f4a90"/>
    <rect x="528" y="0" width="24" height="720" fill="#2f4a90"/>
    <rect x="576" y="0" width="24" height="720" fill="#2f4a90"/>
    <rect x="624" y="0" width="24" height="720" fill="#2f4a90"/>
    <rect x="672" y="0" width="24" height="720" fill="#2f4a90"/>
    <rect x="720" y="0" width="24" height="720" fill="#2f4a90"/>
    <rect x="768" y="0" width="24" height="720" fill="#2f4a90"/>
    <rect x="816" y="0" width="24" height="720" fill="#2f4a90"/>
    <rect x="864" y="0" width="24" height="720" fill="#2f4a90"/>
    <rect x="912" y="0" width="24" height="720" fill="#2f4a90"/>
    <rect x="960" y="0" width="24" height="720" fill="#2f4a90"/>
    <rect x="1008" y="0" width="24" height="720" fill="#2f4a90"/>
    <rect x="1056" y="0" width="24" height="720" fill="#2f4a90"/>
    <rect x="1104" y="0" width="24" height="720" fill="#2f4a90"/>
    <rect x="1152" y="0" width="24" height="720" fill="#2f4a90"/>
    <rect x="1200" y="0" width="24" height="720" fill="#2f4a90"/>
    <rect x="1248" y="0" width="24" height="720" fill="#2f4a90"/>
  </g>
</svg>
